<svg xmlns="http://www.w3.org/2000/svg" width="1080" height="1920" viewBox="0 0 1080 1920">
  <rect width="1080" height="1920" fill="#0b1220"/>
  <rect x="120" y="120" width="840" height="1680" rx="56" fill="#1e293b" stroke="#94a3b8" stroke-width="6"/>
  <rect x="170" y="220" width="740" height="980" rx="20" fill="#26374d"/>
  <rect x="180" y="1640" width="720" height="84" rx="18" fill="#111827" stroke="#64748b" stroke-width="4"/>
  <rect x="220" y="1658" width="120" height="48" rx="10" fill="#334155"/>
  <rect x="360" y="1658" width="120" height="48" rx="10" fill="#334155"/>
  <rect x="500" y="1658" width="120" height="48" rx="10" fill="#0ea5e9"/>
  <rect x="640" y="1658" width="120" height="48" rx="10" fill="#334155"/>
  <rect x="780" y="1658" width="100" height="48" rx="10" fill="#334155"/>
  <text x="224" y="1691" fill="#cbd5e1" font-size="24" font-family="Arial">Photo</text>
  <text x="362" y="1691" fill="#cbd5e1" font-size="24" font-family="Arial">Portrait</text>
  <text x="510" y="1691" fill="#ffffff" font-size="24" font-family="Arial">Night</text>
  <text x="655" y="1691" fill="#cbd5e1" font-size="24" font-family="Arial">Video</text>
  <text x="794" y="1691" fill="#cbd5e1" font-size="24" font-family="Arial">Pro</text>
  <line x1="560" y1="1600" x2="930" y2="1330" stroke="#38bdf8" stroke-width="6"/>
  <line x1="810" y1="1600" x2="930" y2="1450" stroke="#a7f3d0" stroke-width="6"/>
  <text x="940" y="1335" fill="#38bdf8" font-size="34" font-family="Arial">Swipe or tap mode</text>
  <text x="940" y="1455" fill="#a7f3d0" font-size="34" font-family="Arial">Current mode highlighted</text>
</svg>
