<svg xmlns="http://www.w3.org/2000/svg" width="1080" height="1920" viewBox="0 0 1080 1920">
  <rect width="1080" height="1920" fill="#0f1720"/>
  <rect x="120" y="120" width="840" height="1680" rx="56" fill="#1a2533" stroke="#8aa4be" stroke-width="6"/>
  <rect x="170" y="220" width="740" height="980" rx="20" fill="#243447"/>
  <circle cx="540" cy="1540" r="92" fill="#f8fafc" stroke="#94a3b8" stroke-width="8"/>
  <rect x="215" y="1505" width="150" height="70" rx="14" fill="#334155"/>
  <rect x="715" y="1505" width="150" height="70" rx="14" fill="#334155"/>
  <rect x="230" y="1655" width="180" height="52" rx="12" fill="#334155"/>
  <rect x="450" y="1655" width="180" height="52" rx="12" fill="#334155"/>
  <rect x="670" y="1655" width="180" height="52" rx="12" fill="#334155"/>
  <circle cx="540" cy="740" r="26" fill="#38bdf8"/>
  <line x1="620" y1="620" x2="835" y2="520" stroke="#38bdf8" stroke-width="6"/>
  <line x1="540" y1="1540" x2="835" y2="760" stroke="#fde68a" stroke-width="6"/>
  <line x1="290" y1="1540" x2="240" y2="780" stroke="#a7f3d0" stroke-width="6"/>
  <line x1="790" y1="1540" x2="230" y2="1020" stroke="#fca5a5" stroke-width="6"/>
  <line x1="540" y1="760" x2="230" y2="600" stroke="#c4b5fd" stroke-width="6"/>
  <text x="845" y="515" fill="#38bdf8" font-size="40" font-family="Arial">Tap subject</text>
  <text x="845" y="765" fill="#fde68a" font-size="40" font-family="Arial">Shutter</text>
  <text x="70" y="785" fill="#a7f3d0" font-size="40" font-family="Arial">Gallery</text>
  <text x="70" y="1025" fill="#fca5a5" font-size="40" font-family="Arial">Modes</text>
  <text x="70" y="605" fill="#c4b5fd" font-size="40" font-family="Arial">Exposure slider</text>
</svg>
