<svg xmlns="http://www.w3.org/2000/svg" width="1200" height="760" viewBox="0 0 1200 760">
  <rect width="1200" height="760" fill="#0f172a"/>
  <rect x="70" y="120" width="250" height="180" rx="18" fill="#1e293b" stroke="#93c5fd" stroke-width="4"/>
  <rect x="360" y="120" width="250" height="180" rx="18" fill="#1e293b" stroke="#86efac" stroke-width="4"/>
  <rect x="650" y="120" width="250" height="180" rx="18" fill="#1e293b" stroke="#fcd34d" stroke-width="4"/>
  <rect x="940" y="120" width="190" height="180" rx="18" fill="#1e293b" stroke="#fca5a5" stroke-width="4"/>
  <rect x="215" y="420" width="250" height="180" rx="18" fill="#1e293b" stroke="#a5b4fc" stroke-width="4"/>
  <rect x="505" y="420" width="250" height="180" rx="18" fill="#1e293b" stroke="#f9a8d4" stroke-width="4"/>
  <rect x="795" y="420" width="250" height="180" rx="18" fill="#1e293b" stroke="#67e8f9" stroke-width="4"/>
  <text x="95" y="185" fill="#93c5fd" font-size="30" font-family="Arial">Open photo</text>
  <text x="95" y="225" fill="#e5e7eb" font-size="24" font-family="Arial">Google Photos</text>
  <text x="390" y="185" fill="#86efac" font-size="30" font-family="Arial">Tap Edit</text>
  <text x="680" y="185" fill="#fcd34d" font-size="30" font-family="Arial">Crop</text>
  <text x="680" y="225" fill="#e5e7eb" font-size="24" font-family="Arial">Straighten</text>
  <text x="960" y="185" fill="#fca5a5" font-size="30" font-family="Arial">Adjust</text>
  <text x="960" y="225" fill="#e5e7eb" font-size="24" font-family="Arial">Light/Color</text>
  <text x="245" y="485" fill="#a5b4fc" font-size="30" font-family="Arial">Compare</text>
  <text x="245" y="525" fill="#e5e7eb" font-size="24" font-family="Arial">Original vs edit</text>
  <text x="540" y="485" fill="#f9a8d4" font-size="30" font-family="Arial">Optional AI</text>
  <text x="540" y="525" fill="#e5e7eb" font-size="24" font-family="Arial">Eraser / Unblur</text>
  <text x="830" y="485" fill="#67e8f9" font-size="30" font-family="Arial">Save copy</text>
  <text x="830" y="525" fill="#e5e7eb" font-size="24" font-family="Arial">Keep original</text>
  <line x1="320" y1="210" x2="360" y2="210" stroke="#94a3b8" stroke-width="6"/>
  <line x1="610" y1="210" x2="650" y2="210" stroke="#94a3b8" stroke-width="6"/>
  <line x1="900" y1="210" x2="940" y2="210" stroke="#94a3b8" stroke-width="6"/>
  <line x1="1035" y1="300" x2="920" y2="420" stroke="#94a3b8" stroke-width="6"/>
  <line x1="830" y1="510" x2="755" y2="510" stroke="#94a3b8" stroke-width="6"/>
  <line x1="505" y1="510" x2="465" y2="510" stroke="#94a3b8" stroke-width="6"/>
</svg>
