<svg xmlns="http://www.w3.org/2000/svg" width="1080" height="1920" viewBox="0 0 1080 1920">
  <rect width="1080" height="1920" fill="#0b1220"/>
  <rect x="120" y="120" width="840" height="1680" rx="56" fill="#1e293b" stroke="#94a3b8" stroke-width="6"/>
  <rect x="170" y="220" width="740" height="980" rx="20" fill="#233349"/>
  <rect x="180" y="1290" width="720" height="80" rx="14" fill="#0f172a" stroke="#64748b" stroke-width="4"/>
  <rect x="200" y="1310" width="90" height="40" rx="8" fill="#0ea5e9"/>
  <rect x="304" y="1310" width="90" height="40" rx="8" fill="#334155"/>
  <rect x="408" y="1310" width="90" height="40" rx="8" fill="#334155"/>
  <rect x="512" y="1310" width="90" height="40" rx="8" fill="#334155"/>
  <rect x="616" y="1310" width="90" height="40" rx="8" fill="#334155"/>
  <rect x="720" y="1310" width="90" height="40" rx="8" fill="#334155"/>
  <text x="222" y="1338" fill="#fff" font-size="22" font-family="Arial">WB</text>
  <text x="333" y="1338" fill="#cbd5e1" font-size="22" font-family="Arial">F</text>
  <text x="431" y="1338" fill="#cbd5e1" font-size="22" font-family="Arial">S</text>
  <text x="526" y="1338" fill="#cbd5e1" font-size="22" font-family="Arial">ISO</text>
  <text x="638" y="1338" fill="#cbd5e1" font-size="22" font-family="Arial">EV</text>
  <text x="740" y="1338" fill="#cbd5e1" font-size="22" font-family="Arial">Lens</text>
  <line x1="245" y1="1270" x2="930" y2="1120" stroke="#38bdf8" stroke-width="6"/>
  <line x1="550" y1="1270" x2="930" y2="1210" stroke="#fcd34d" stroke-width="6"/>
  <text x="940" y="1125" fill="#38bdf8" font-size="34" font-family="Arial">Tap parameter</text>
  <text x="940" y="1215" fill="#fcd34d" font-size="34" font-family="Arial">Change value, then shoot</text>
</svg>
